<svg width="40" height="40" viewBox="0 0 40 40" fill="none" xmlns="http://www.w3.org/2000/svg"><rect width="40" height="40" rx="10" fill="#EFF6FF"/><mask id="a" style="mask-type:alpha" maskUnits="userSpaceOnUse" x="8" y="8" width="24" height="24"><path fill="#D9D9D9" d="M8 8h24v24H8z"/></mask><g mask="url(#a)"><path d="M14.5 24c.783 0 1.546.087 2.288.262.741.175 1.479.438 2.212.788V15.2c-.683-.4-1.408-.7-2.175-.9a9.175 9.175 0 0 0-4.112-.125A8.668 8.668 0 0 0 11 14.7v9.9c.583-.2 1.162-.35 1.738-.45.575-.1 1.162-.15 1.762-.15Zm6.5 1.05c.733-.35 1.47-.613 2.212-.788a10.268 10.268 0 0 1 4.05-.113A11.47 11.47 0 0 1 29 24.6v-9.9a8.668 8.668 0 0 0-1.712-.525 9.216 9.216 0 0 0-4.113.125c-.767.2-1.492.5-2.175.9v9.85Zm-1.663 2.337a2.796 2.796 0 0 1-.587-.237 8.181 8.181 0 0 0-2.05-.862A8.477 8.477 0 0 0 14.5 26c-.7 0-1.387.092-2.063.275a9.05 9.05 0 0 0-1.937.775c-.35.183-.688.175-1.012-.025A.966.966 0 0 1 9 26.15V14.1c0-.183.046-.358.137-.525a.863.863 0 0 1 .413-.375c.767-.4 1.567-.7 2.4-.9.833-.2 1.683-.3 2.55-.3a10.78 10.78 0 0 1 5.5 1.5 10.78 10.78 0 0 1 5.5-1.5c.867 0 1.717.1 2.55.3.833.2 1.633.5 2.4.9.183.083.32.208.413.375.091.167.137.342.137.525v12.05a.966.966 0 0 1-.488.875c-.325.2-.662.208-1.012.025a9.05 9.05 0 0 0-1.938-.775A7.836 7.836 0 0 0 25.5 26c-.75 0-1.483.096-2.2.288a8.16 8.16 0 0 0-2.05.862c-.183.1-.38.18-.587.238-.209.058-.43.087-.663.087-.233 0-.454-.03-.663-.088Z" fill="#2463EB"/></g></svg>