<svg width="40" height="40" viewBox="0 0 40 40" fill="none" xmlns="http://www.w3.org/2000/svg"><rect width="40" height="40" rx="10" fill="#EFF6FF"/><mask id="a" style="mask-type:alpha" maskUnits="userSpaceOnUse" x="8" y="8" width="24" height="24"><path fill="#D9D9D9" d="M8 8h24v24H8z"/></mask><g mask="url(#a)"><path d="M15 23h5.575c.333 0 .583-.104.75-.313a1.072 1.072 0 0 0 0-1.375c-.167-.208-.417-.312-.75-.312H15a.968.968 0 0 0-.713.288A.968.968 0 0 0 14 22c0 .283.096.52.287.712.192.192.43.288.713.288Zm0-4h4c.283 0 .52-.096.712-.288A.968.968 0 0 0 20 18a.968.968 0 0 0-.288-.712A.968.968 0 0 0 19 17h-4a.968.968 0 0 0-.713.288A.968.968 0 0 0 14 18c0 .283.096.52.287.712.192.192.43.288.713.288Zm-3 8c-.55 0-1.02-.196-1.412-.587A1.926 1.926 0 0 1 10 25V15c0-.55.196-1.02.588-1.412A1.926 1.926 0 0 1 12 13h16c.55 0 1.02.196 1.413.588.391.391.587.862.587 1.412v1.5c0 .283-.096.52-.288.712A.968.968 0 0 1 29 17.5a.968.968 0 0 1-.712-.288A.968.968 0 0 1 28 16.5V15H12v10h6c.283 0 .52.096.712.288.192.191.288.429.288.712s-.096.52-.288.712A.968.968 0 0 1 18 27h-6Zm18.9-6.7a.382.382 0 0 1 .125.275c0 .1-.042.192-.125.275l-.9.9L28.25 20l.9-.9a.382.382 0 0 1 .275-.125c.1 0 .192.042.275.125l1.2 1.2Zm-1.5 2.05-6.35 6.35a1.033 1.033 0 0 1-.725.3H21.5a.48.48 0 0 1-.35-.15.48.48 0 0 1-.15-.35v-.825c0-.133.025-.262.075-.387a.999.999 0 0 1 .225-.338l6.35-6.35 1.75 1.75Z" fill="#2463EB"/></g></svg>