<svg width="20" height="20" viewBox="0 0 20 20" fill="none" xmlns="http://www.w3.org/2000/svg"><mask id="a" style="mask-type:alpha" maskUnits="userSpaceOnUse" x="0" y="0" width="20" height="20"><path fill="#D9D9D9" d="M0 0h20v20H0z"/></mask><g mask="url(#a)"><path d="M4.188 17.5c-.459 0-.851-.163-1.178-.49a1.605 1.605 0 0 1-.49-1.177V9.208a2.868 2.868 0 0 1-.739-1.125c-.173-.458-.177-.958-.01-1.5l.875-2.833a1.84 1.84 0 0 1 .594-.896c.284-.236.614-.354.99-.354h11.583c.375 0 .7.115.979.344.277.229.479.531.604.906l.875 2.833c.167.542.163 1.035-.01 1.48-.174.444-.42.826-.74 1.145v6.625c0 .459-.163.851-.49 1.177-.326.327-.718.49-1.177.49H4.188Zm7.666-9.167c.375 0 .66-.128.854-.385.195-.257.271-.545.23-.865l-.459-2.916h-1.625V7.25c0 .292.097.545.292.76a.92.92 0 0 0 .708.323Zm-3.75 0c.32 0 .58-.107.781-.323.202-.215.303-.468.303-.76V4.167H7.563l-.459 2.916c-.055.334.018.625.219.875s.462.375.781.375Zm-3.708 0c.25 0 .469-.09.656-.27.188-.181.302-.41.344-.688l.458-3.208H4.23l-.833 2.791c-.083.278-.038.577.135.896.174.32.462.48.865.48Zm11.25 0c.403 0 .694-.16.875-.479.18-.32.222-.618.125-.896l-.875-2.791h-1.583l.458 3.208c.042.278.156.507.344.688.187.18.406.27.656.27Zm-11.458 7.5h11.666V9.958a.503.503 0 0 1-.135.042h-.073c-.375 0-.705-.063-.99-.188a2.812 2.812 0 0 1-.843-.604 2.75 2.75 0 0 1-.855.584c-.32.139-.66.208-1.02.208a2.68 2.68 0 0 1-1.053-.208 2.715 2.715 0 0 1-.864-.584c-.236.25-.51.445-.823.584a2.46 2.46 0 0 1-1.01.208c-.403 0-.768-.07-1.094-.208a2.715 2.715 0 0 1-.865-.584c-.291.292-.58.497-.864.615a2.51 2.51 0 0 1-.97.177h-.093a.211.211 0 0 1-.114-.042v5.875Z" fill="#111827"/></g></svg>