<svg width="40" height="40" viewBox="0 0 40 40" fill="none" xmlns="http://www.w3.org/2000/svg"><rect width="40" height="40" rx="10" fill="#EFF6FF"/><mask id="a" style="mask-type:alpha" maskUnits="userSpaceOnUse" x="8" y="8" width="24" height="24"><path fill="#D9D9D9" d="M8 8h24v24H8z"/></mask><g mask="url(#a)"><path d="M12 28c-.55 0-1.02-.196-1.412-.587A1.926 1.926 0 0 1 10 26V14c0-.55.196-1.02.588-1.412A1.926 1.926 0 0 1 12 12h16c.55 0 1.02.196 1.413.588.391.391.587.862.587 1.412v12c0 .55-.196 1.02-.587 1.413A1.926 1.926 0 0 1 28 28H12Zm0-2h7V14h-7v12Zm9 0h7V14h-7v12Zm-7-2h3c.283 0 .52-.096.712-.288A.968.968 0 0 0 18 23a.968.968 0 0 0-.288-.712A.968.968 0 0 0 17 22h-3a.968.968 0 0 0-.713.288A.968.968 0 0 0 13 23c0 .283.096.52.287.712.192.192.43.288.713.288Zm0-3h3c.283 0 .52-.096.712-.288A.968.968 0 0 0 18 20a.968.968 0 0 0-.288-.712A.968.968 0 0 0 17 19h-3a.968.968 0 0 0-.713.288A.968.968 0 0 0 13 20c0 .283.096.52.287.712.192.192.43.288.713.288Zm0-3h3c.283 0 .52-.096.712-.288A.968.968 0 0 0 18 17a.968.968 0 0 0-.288-.712A.968.968 0 0 0 17 16h-3a.968.968 0 0 0-.713.288A.968.968 0 0 0 13 17c0 .283.096.52.287.712.192.192.43.288.713.288Zm9 6h3c.283 0 .52-.096.712-.288A.968.968 0 0 0 27 23a.968.968 0 0 0-.288-.712A.968.968 0 0 0 26 22h-3a.968.968 0 0 0-.712.288A.968.968 0 0 0 22 23c0 .283.096.52.288.712A.965.965 0 0 0 23 24Zm0-3h3c.283 0 .52-.096.712-.288A.968.968 0 0 0 27 20a.968.968 0 0 0-.288-.712A.968.968 0 0 0 26 19h-3a.968.968 0 0 0-.712.288A.968.968 0 0 0 22 20c0 .283.096.52.288.712A.965.965 0 0 0 23 21Zm0-3h3c.283 0 .52-.096.712-.288A.968.968 0 0 0 27 17a.968.968 0 0 0-.288-.712A.968.968 0 0 0 26 16h-3a.968.968 0 0 0-.712.288A.968.968 0 0 0 22 17c0 .283.096.52.288.712A.965.965 0 0 0 23 18Z" fill="#2463EB"/></g></svg>