<svg width="16" height="16" viewBox="0 0 16 16" fill="none" xmlns="http://www.w3.org/2000/svg"><mask id="a" style="mask-type:alpha" maskUnits="userSpaceOnUse" x="0" y="0" width="16" height="16"><path fill="#D9D9D9" d="M0 0h16v16H0z"/></mask><g mask="url(#a)"><path d="M8.558 11.758a.805.805 0 0 0 .242-.591.801.801 0 0 0-.242-.592.805.805 0 0 0-.592-.242.8.8 0 0 0-.591.242.805.805 0 0 0-.242.592.8.8 0 0 0 .242.591.805.805 0 0 0 .591.242c.234 0 .43-.08.592-.242ZM8 14.667a6.492 6.492 0 0 1-2.6-.525 6.732 6.732 0 0 1-2.117-1.425A6.733 6.733 0 0 1 1.858 10.6 6.492 6.492 0 0 1 1.333 8c0-.922.175-1.789.525-2.6a6.732 6.732 0 0 1 1.425-2.117c.6-.6 1.306-1.075 2.117-1.425A6.492 6.492 0 0 1 8 1.333c.922 0 1.789.175 2.6.525.81.35 1.516.825 2.116 1.425.6.6 1.075 1.306 1.425 2.117.35.811.525 1.678.525 2.6 0 .922-.175 1.789-.525 2.6a6.733 6.733 0 0 1-1.425 2.117 6.73 6.73 0 0 1-2.116 1.425 6.492 6.492 0 0 1-2.6.525Zm0-1.334c1.489 0 2.75-.516 3.783-1.55 1.033-1.033 1.55-2.294 1.55-3.783 0-1.489-.517-2.75-1.55-3.783C10.75 3.183 9.489 2.667 8 2.667c-1.49 0-2.75.516-3.784 1.55C3.183 5.25 2.666 6.51 2.666 8c0 1.489.517 2.75 1.55 3.783 1.034 1.034 2.295 1.55 3.784 1.55Zm.066-8.2c.278 0 .52.09.725.267.206.178.309.4.309.667 0 .244-.075.46-.225.65a4.17 4.17 0 0 1-.509.533 4.49 4.49 0 0 0-.675.733 1.49 1.49 0 0 0-.291.9c0 .156.058.286.175.392a.59.59 0 0 0 .408.158.594.594 0 0 0 .425-.166.768.768 0 0 0 .225-.417c.044-.233.144-.442.3-.625s.322-.358.5-.525c.256-.245.475-.511.658-.8.184-.289.275-.611.275-.967 0-.566-.23-1.03-.691-1.391A2.534 2.534 0 0 0 8.066 4c-.422 0-.825.089-1.208.267-.383.177-.675.45-.875.816a.601.601 0 0 0-.075.425c.028.15.103.264.225.342a.664.664 0 0 0 .9-.2 1.29 1.29 0 0 1 1.033-.517Z" fill="#4B5563"/></g></svg>