<svg width="40" height="40" viewBox="0 0 40 40" fill="none" xmlns="http://www.w3.org/2000/svg"><rect width="40" height="40" rx="10" fill="#EFF6FF"/><mask id="a" style="mask-type:alpha" maskUnits="userSpaceOnUse" x="8" y="8" width="24" height="24"><path fill="#D9D9D9" d="M8 8h24v24H8z"/></mask><g mask="url(#a)"><path d="M12 27v-1.8c0-.567.146-1.087.438-1.563A2.918 2.918 0 0 1 13.6 22.55a14.841 14.841 0 0 1 3.15-1.163A13.76 13.76 0 0 1 20 21a14.7 14.7 0 0 1 1.825.113c.6.075 1.2.195 1.8.362l-1.675 1.7a21.72 21.72 0 0 0-.975-.125A9.32 9.32 0 0 0 20 23a11.6 11.6 0 0 0-2.775.337c-.917.226-1.825.563-2.725 1.013a.973.973 0 0 0-.5.85v.8h6v2h-7a.968.968 0 0 1-.713-.288A.968.968 0 0 1 12 27Zm10 1v-1.25c0-.267.054-.52.163-.762.108-.242.254-.455.437-.638l4.925-4.925c.15-.15.317-.258.5-.325a1.6 1.6 0 0 1 .55-.1 1.504 1.504 0 0 1 1.075.45l.925.925c.133.15.238.317.313.5.074.183.112.367.112.55 0 .183-.033.37-.1.563a1.342 1.342 0 0 1-.325.512l-4.925 4.925a1.975 1.975 0 0 1-1.4.575H23a.968.968 0 0 1-.712-.288A.968.968 0 0 1 22 28Zm1.5-.5h.95l3.025-3.05-.45-.475-.475-.45-3.05 3.025v.95Zm3.525-3.525-.475-.45.925.925-.45-.475Zm-9.85-5.15C16.392 18.042 16 17.1 16 16s.392-2.042 1.175-2.825C17.958 12.392 18.9 12 20 12s2.042.392 2.825 1.175C23.608 13.958 24 14.9 24 16s-.392 2.042-1.175 2.825C22.042 19.608 21.1 20 20 20s-2.042-.392-2.825-1.175Zm4.238-1.412c.39-.393.587-.863.587-1.413s-.196-1.02-.587-1.412A1.926 1.926 0 0 0 20 14c-.55 0-1.02.196-1.413.588A1.926 1.926 0 0 0 18 16c0 .55.196 1.02.587 1.413.392.391.863.587 1.413.587s1.02-.196 1.413-.587Z" fill="#2463EB"/></g></svg>