<svg width="20" height="20" viewBox="0 0 20 20" fill="none" xmlns="http://www.w3.org/2000/svg"><mask id="a" style="mask-type:alpha" maskUnits="userSpaceOnUse" x="0" y="0" width="20" height="20"><path fill="#D9D9D9" d="M0 0h20v20H0z"/></mask><g mask="url(#a)"><path d="M10 18.333a8.115 8.115 0 0 1-3.25-.656 8.416 8.416 0 0 1-2.646-1.781 8.415 8.415 0 0 1-1.781-2.646A8.115 8.115 0 0 1 1.667 10c0-1.153.218-2.236.656-3.25a8.415 8.415 0 0 1 1.781-2.646A8.415 8.415 0 0 1 6.75 2.323 8.115 8.115 0 0 1 10 1.667c.667 0 1.316.076 1.948.229.632.153 1.24.375 1.823.666a.79.79 0 0 1 .406.5.7.7 0 0 1-.114.625.964.964 0 0 1-1.23.292 6.96 6.96 0 0 0-1.385-.479A6.39 6.39 0 0 0 10 3.333c-1.847 0-3.42.65-4.719 1.948C3.983 6.58 3.333 8.153 3.333 10c0 1.847.65 3.42 1.948 4.719C6.58 16.017 8.153 16.667 10 16.667c1.847 0 3.42-.65 4.719-1.948 1.298-1.299 1.948-2.872 1.948-4.719a4.82 4.82 0 0 0-.042-.646 1.108 1.108 0 0 1 .135-.677.86.86 0 0 1 .532-.427.755.755 0 0 1 .625.062.638.638 0 0 1 .333.5A8.364 8.364 0 0 1 18.333 10a8.115 8.115 0 0 1-.656 3.25 8.415 8.415 0 0 1-1.781 2.646 8.416 8.416 0 0 1-2.646 1.781 8.115 8.115 0 0 1-3.25.656ZM8.833 11.5l7.75-7.77a.814.814 0 0 1 .573-.24.776.776 0 0 1 .594.24.79.79 0 0 1 .23.582.79.79 0 0 1-.23.584L9.417 13.25a.8.8 0 0 1-.584.25.8.8 0 0 1-.583-.25l-2.375-2.375a.79.79 0 0 1-.23-.583.79.79 0 0 1 .23-.584.79.79 0 0 1 .583-.229.79.79 0 0 1 .584.23L8.833 11.5Z" fill="#2463EB"/></g></svg>