<svg width="101" height="101" viewBox="0 0 101 101" fill="none" xmlns="http://www.w3.org/2000/svg"><path d="M50.1 95.4c25.018 0 45.3-20.282 45.3-45.3 0-25.019-20.282-45.3-45.3-45.3-25.02 0-45.3 20.281-45.3 45.3 0 25.018 20.281 45.3 45.3 45.3Z" fill="url(#a)"/><path d="M75.282 67.956a2.202 2.202 0 0 1-1.782.924H27.3a2.2 2.2 0 0 1-1.782-.924C34.208 48.629 32.404 52.644 35 46.88h30.8c2.794 6.215.726 1.628 9.482 21.076Z" fill="#9CA3B0"/><path d="M35 32.58v14.3c-2.794 6.215-.726 1.628-9.482 21.076a2.09 2.09 0 0 1-.418-1.276v-15.4l9.9-18.7Zm40.7 18.7v15.4a2.09 2.09 0 0 1-.418 1.276c-8.69-19.327-6.886-15.312-9.482-21.076v-14.3l9.9 18.7Z" fill="#FCFDFF"/><path d="M75.7 51.28v15.4a2.2 2.2 0 0 1-2.2 2.2H27.3a2.2 2.2 0 0 1-2.2-2.2v-15.4h18.8a1.1 1.1 0 0 1 1.1.935 5.5 5.5 0 0 0 10.845 0 1.1 1.1 0 0 1 1.1-.935H75.7Z" fill="#D1D5DB"/><path d="M35 32.58h30.8v14.3H35v-14.3Z" fill="#E1E4E9"/><defs><linearGradient id="a" x1="50.1" y1="4.8" x2="50.1" y2="95.4" gradientUnits="userSpaceOnUse"><stop stop-color="#D1D5DB" stop-opacity=".5"/><stop offset="1" stop-color="#D1D5DB" stop-opacity=".1"/></linearGradient></defs></svg>