<svg width="24" height="24" viewBox="0 0 24 24" fill="none" xmlns="http://www.w3.org/2000/svg"><g clip-path="url(#a)"><path d="M12.002 4.525a.656.656 0 0 1-.657-.656V2.156a.656.656 0 0 1 1.313 0V3.87a.657.657 0 0 1-.656.656Zm5.749 2.382a.656.656 0 0 1-.464-1.12l1.211-1.212a.656.656 0 1 1 .929.928l-1.211 1.211a.658.658 0 0 1-.465.193Zm4.094 5.749h-1.712a.656.656 0 0 1 0-1.312h1.712a.656.656 0 0 1 0 1.312Zm-2.883 6.961a.651.651 0 0 1-.464-.193l-1.21-1.21a.656.656 0 1 1 .928-.93l1.21 1.212a.656.656 0 0 1-.464 1.12Zm-13.922 0a.656.656 0 0 1-.464-1.12l1.212-1.212a.657.657 0 0 1 .928.928l-1.21 1.211a.655.655 0 0 1-.465.193Zm-1.17-6.961H2.158a.656.656 0 0 1 0-1.312H3.87a.656.656 0 0 1 0 1.312Zm2.382-5.749a.651.651 0 0 1-.464-.193l-1.211-1.21a.656.656 0 1 1 .928-.93l1.211 1.212a.656.656 0 0 1-.464 1.12Z" fill="#FDBD41"/><path d="M14.627 19.875v1.094c0 .84-.692 1.531-1.532 1.531h-2.187c-.735 0-1.531-.56-1.531-1.785v-.84h5.25Z" fill="#374652"/><path d="M15.86 7.24a6.148 6.148 0 0 0-5.17-1.225c-2.32.481-4.2 2.371-4.682 4.69-.49 2.38.403 4.742 2.31 6.186.516.385.875.98.998 1.672v.008c.017-.009.043-.009.06-.009h5.25c.018 0 .027 0 .045.01v-.01c.122-.665.516-1.277 1.12-1.75A6.112 6.112 0 0 0 18.127 12a6.1 6.1 0 0 0-2.266-4.76Zm-.577 5.197a.661.661 0 0 1-.656-.656 2.405 2.405 0 0 0-2.406-2.406.661.661 0 0 1-.657-.656c0-.359.298-.656.657-.656a3.727 3.727 0 0 1 3.718 3.718.661.661 0 0 1-.656.656Z" fill="#FDBD41"/><path d="M9.315 18.563h.061c-.017 0-.043 0-.06.008v-.009Zm5.355 0v.008c-.017-.009-.026-.009-.043-.009h.043Z" fill="#000"/></g><defs><clipPath id="a"><path fill="#fff" transform="translate(1.501 1.5)" d="M0 0h21v21H0z"/></clipPath></defs></svg>