<svg width="20" height="20" viewBox="0 0 20 20" fill="none" xmlns="http://www.w3.org/2000/svg"><path d="M15.907 16.187v2.163c0 .359-.236.65-.528.65H4.622c-.292 0-.528-.291-.528-.65v-2.163m0-9.279V1.547c0-.302.236-.548.528-.548h7.91M16 7V5" stroke="#4B5563" stroke-width="1.5" stroke-miterlimit="10" stroke-linecap="round" stroke-linejoin="round"/><path d="M13.065.505a.75.75 0 1 0-1.129.988L12.501 1l.564-.494ZM16 5l.565-.494-3.5-4L12.5 1l-.565.494 3.5 4L16 5Z" fill="#4B5563"/><path d="M18 14a2 2 0 0 1-2 2H4a2 2 0 0 1-2-2V9a2 2 0 0 1 2-2h12a2 2 0 0 1 2 2v5Z" stroke="#4B5563" stroke-width="1.5" stroke-miterlimit="10" stroke-linecap="round" stroke-linejoin="round"/><path d="M4 10h2.798m-1.399 3.915V10m2.937 3.915 1.46-3.86a.09.09 0 0 1 .167 0l1.45 3.86" stroke="#4B5563" stroke-width="1.2" stroke-miterlimit="10" stroke-linecap="round" stroke-linejoin="round"/><path d="M11 13H9" stroke="#4B5563" stroke-miterlimit="10" stroke-linecap="round" stroke-linejoin="round"/><path d="m12.952 10 2.797 3.915m0-3.915-2.797 3.915" stroke="#4B5563" stroke-width="1.2" stroke-miterlimit="10" stroke-linecap="round" stroke-linejoin="round"/><path d="M7 4h4" stroke="#4B5563" stroke-width="1.5" stroke-miterlimit="10" stroke-linecap="round" stroke-linejoin="round"/></svg>