<svg width="40" height="40" viewBox="0 0 40 40" fill="none" xmlns="http://www.w3.org/2000/svg"><rect width="40" height="40" rx="10" fill="#EFF6FF"/><mask id="a" style="mask-type:alpha" maskUnits="userSpaceOnUse" x="8" y="8" width="24" height="24"><path fill="#D9D9D9" d="M8 8h24v24H8z"/></mask><g mask="url(#a)"><path d="M18 26c-.55 0-1.02-.196-1.413-.587A1.926 1.926 0 0 1 16 24v-1.25a6.724 6.724 0 0 1-2.213-2.5A6.984 6.984 0 0 1 13 17c0-1.95.68-3.604 2.037-4.963C16.396 10.68 18.05 10 20 10c1.95 0 3.604.68 4.962 2.037C26.322 13.396 27 15.05 27 17a6.91 6.91 0 0 1-.788 3.238A6.96 6.96 0 0 1 24 22.75V24c0 .55-.196 1.02-.587 1.413A1.926 1.926 0 0 1 22 26h-4Zm0-2h4v-1.775c0-.167.038-.325.113-.475a.851.851 0 0 1 .312-.35l.425-.3a4.814 4.814 0 0 0 1.587-1.788A4.963 4.963 0 0 0 25 17c0-1.383-.488-2.563-1.462-3.537C22.562 12.488 21.383 12 20 12s-2.563.488-3.538 1.463C15.488 14.438 15 15.617 15 17c0 .817.188 1.587.563 2.313.374.725.904 1.32 1.587 1.787l.425.3c.133.083.238.2.313.35.074.15.112.308.112.475V24Zm0 6a.968.968 0 0 1-.712-.288A.968.968 0 0 1 17 29c0-.283.096-.52.288-.712A.968.968 0 0 1 18 28h4c.283 0 .52.096.712.288.192.191.288.429.288.712s-.096.52-.288.712A.968.968 0 0 1 22 30h-4Z" fill="#2463EB"/></g></svg>