<svg width="40" height="40" viewBox="0 0 40 40" fill="none" xmlns="http://www.w3.org/2000/svg"><rect width="40" height="40" rx="20" fill="#fff"/><mask id="a" style="mask-type:alpha" maskUnits="userSpaceOnUse" x="6" y="6" width="28" height="28"><path fill="#D9D9D9" d="M6 6h28v28H6z"/></mask><g mask="url(#a)"><path d="M11.833 28.167c-.33 0-.608-.112-.832-.336a1.129 1.129 0 0 1-.335-.83c0-.331.112-.609.335-.832.224-.224.501-.335.832-.335h1.166v-8.167c0-1.614.486-3.048 1.459-4.302.972-1.254 2.236-2.076 3.791-2.465v-.816c0-.487.17-.9.51-1.24.341-.34.754-.51 1.24-.51s.9.17 1.24.51c.34.34.51.753.51 1.24v.816c1.556.39 2.82 1.21 3.792 2.465.972 1.254 1.458 2.688 1.458 4.302v8.166h1.167c.33 0 .608.112.831.336.224.223.336.5.336.831 0 .33-.112.608-.336.831-.223.224-.5.336-.831.336H11.833Zm8.166 3.5a2.25 2.25 0 0 1-1.648-.686 2.247 2.247 0 0 1-.685-1.648h4.667c0 .642-.229 1.192-.686 1.648a2.247 2.247 0 0 1-1.648.686Zm-4.666-5.834h9.333v-8.166c0-1.284-.457-2.382-1.37-3.296-.915-.914-2.013-1.37-3.297-1.37-1.283 0-2.382.456-3.296 1.37-.913.914-1.37 2.013-1.37 3.296v8.166Z" fill="#4B5563"/></g></svg>