<svg width="48" height="48" viewBox="0 0 48 48" fill="none" xmlns="http://www.w3.org/2000/svg"><rect width="48" height="48" rx="12" fill="#EFF6FF"/><mask id="a" style="mask-type:alpha" maskUnits="userSpaceOnUse" x="9" y="9" width="30" height="30"><path fill="#D9D9D9" d="M9.6 9.6h28.8v28.8H9.6z"/></mask><g mask="url(#a)"><path d="M15.6 36c-.66 0-1.226-.235-1.696-.705A2.311 2.311 0 0 1 13.2 33.6V16.8c0-.66.235-1.225.705-1.695A2.311 2.311 0 0 1 15.6 14.4h1.2v-1.2c0-.34.115-.625.345-.855.23-.23.515-.345.855-.345.34 0 .625.115.855.345.23.23.345.515.345.855v1.2h9.6v-1.2c0-.34.115-.625.345-.855.23-.23.515-.345.855-.345.34 0 .625.115.855.345.23.23.345.515.345.855v1.2h1.2c.66 0 1.225.235 1.695.705s.705 1.035.705 1.695v16.8c0 .66-.235 1.225-.705 1.695S33.06 36 32.4 36H15.6Zm0-2.4h16.8v-12H15.6v12Zm0-14.4h16.8v-2.4H15.6v2.4Zm8.4 7.2c-.34 0-.626-.115-.856-.345a1.161 1.161 0 0 1-.345-.855c0-.34.115-.625.345-.855.23-.23.515-.345.855-.345.34 0 .625.115.855.345.23.23.345.515.345.855 0 .34-.115.625-.345.855-.23.23-.515.345-.855.345Zm-5.656-.345A1.161 1.161 0 0 1 18 25.2c0-.34.115-.625.345-.855.23-.23.515-.345.855-.345.34 0 .625.115.855.345.23.23.345.515.345.855 0 .34-.115.625-.345.855-.23.23-.515.345-.855.345-.34 0-.625-.115-.855-.345ZM28.8 26.4c-.34 0-.625-.115-.855-.345a1.161 1.161 0 0 1-.345-.855c0-.34.115-.625.345-.855.23-.23.515-.345.855-.345.34 0 .625.115.855.345.23.23.345.515.345.855 0 .34-.115.625-.345.855-.23.23-.515.345-.855.345ZM24 31.2c-.34 0-.625-.115-.855-.345A1.161 1.161 0 0 1 22.8 30c0-.34.115-.625.345-.855.23-.23.515-.345.855-.345.34 0 .625.115.855.345.23.23.345.515.345.855 0 .34-.115.625-.345.855-.23.23-.515.345-.855.345Zm-5.655-.345A1.161 1.161 0 0 1 18 30c0-.34.115-.625.345-.855.23-.23.515-.345.855-.345.34 0 .625.115.855.345.23.23.345.515.345.855 0 .34-.115.625-.345.855-.23.23-.515.345-.855.345-.34 0-.625-.115-.855-.345ZM28.8 31.2c-.34 0-.625-.115-.855-.345A1.161 1.161 0 0 1 27.6 30c0-.34.115-.625.345-.855.23-.23.515-.345.855-.345.34 0 .625.115.855.345.23.23.345.515.345.855 0 .34-.115.625-.345.855-.23.23-.515.345-.855.345Z" fill="#2463EB"/></g></svg>