<svg width="40" height="40" viewBox="0 0 40 40" fill="none" xmlns="http://www.w3.org/2000/svg"><rect width="40" height="40" rx="10" fill="#EFF6FF"/><mask id="a" style="mask-type:alpha" maskUnits="userSpaceOnUse" x="8" y="8" width="24" height="24"><path fill="#D9D9D9" d="M8 8h24v24H8z"/></mask><g mask="url(#a)"><path d="m25 25.2-.9-.9a.948.948 0 0 0-.7-.275.948.948 0 0 0-.7.275.948.948 0 0 0-.275.7.95.95 0 0 0 .275.7l2.6 2.6c.2.2.433.3.7.3.267 0 .5-.1.7-.3l2.6-2.6a.948.948 0 0 0 .275-.7.948.948 0 0 0-.275-.7.948.948 0 0 0-.7-.275.948.948 0 0 0-.7.275l-.9.9v-3.175a.968.968 0 0 0-.288-.712.968.968 0 0 0-.712-.288.968.968 0 0 0-.712.288.968.968 0 0 0-.288.712V25.2ZM23 30h6c.283 0 .52.096.712.288.192.191.288.429.288.712s-.096.52-.288.712A.968.968 0 0 1 29 32h-6a.968.968 0 0 1-.712-.288A.968.968 0 0 1 22 31c0-.283.096-.52.288-.712A.968.968 0 0 1 23 30Zm-9-2c-.55 0-1.02-.196-1.412-.587A1.926 1.926 0 0 1 12 26V12c0-.55.196-1.02.588-1.412A1.926 1.926 0 0 1 14 10h6.175a1.975 1.975 0 0 1 1.4.575l4.85 4.85a1.975 1.975 0 0 1 .575 1.4v1.2a.97.97 0 0 1-.288.713.968.968 0 0 1-.712.287.968.968 0 0 1-.712-.287.968.968 0 0 1-.288-.713V17h-3.5c-.417 0-.77-.146-1.063-.438A1.446 1.446 0 0 1 20 15.5V12h-6v14h5c.283 0 .52.096.712.288.192.191.288.429.288.712s-.096.52-.288.712A.968.968 0 0 1 19 28h-5Z" fill="#2463EB"/></g></svg>