<svg width="64" height="64" viewBox="0 0 64 64" fill="none" xmlns="http://www.w3.org/2000/svg"><path d="M0 32C0 14.327 14.327 0 32 0c17.673 0 32 14.327 32 32 0 17.673-14.327 32-32 32C14.327 64 0 49.673 0 32Z" fill="#FEF3C8"/><path fill-rule="evenodd" clip-rule="evenodd" d="M37.202 20.044A6.133 6.133 0 0 0 32 17.18a6.13 6.13 0 0 0-5.202 2.864c-3.224 5.158-7.662 12.254-10.987 17.575a5.964 5.964 0 0 0-.131 6.118 6.129 6.129 0 0 0 5.332 3.083h21.975a6.129 6.129 0 0 0 5.332-3.083 5.964 5.964 0 0 0-.13-6.118L37.201 20.044ZM32 37.699a2.281 2.281 0 0 1 0 4.56 2.281 2.281 0 0 1 0-4.56Zm2.858-10.308a2.898 2.898 0 0 0-2.856-3.372H32a2.897 2.897 0 0 0-2.855 3.372c.29 1.742.632 5.233.866 6.64A2.02 2.02 0 0 0 32 35.719h.003a2.02 2.02 0 0 0 1.991-1.686c.234-1.408.576-4.898.866-6.641h-.001Z" fill="url(#a)"/><defs><linearGradient id="a" x1="10.984" y1="14.989" x2="44.11" y2="51.292" gradientUnits="userSpaceOnUse"><stop stop-color="#F2C94C"/><stop offset="1" stop-color="#F2994A"/></linearGradient></defs></svg>