<svg width="20" height="20" viewBox="0 0 20 20" fill="none" xmlns="http://www.w3.org/2000/svg"><path d="M11.225 2H4.75c-.464 0-.91.169-1.237.469A1.53 1.53 0 0 0 3 3.6v12.8c0 .424.184.831.513 1.131.328.3.773.469 1.237.469h10.5c.464 0 .91-.169 1.237-.469.329-.3.513-.707.513-1.131v-5.92M1.667 6H5M1.667 9H5m-3.333 3H5" stroke="#4B5563" stroke-width="1.5" stroke-linecap="round" stroke-linejoin="round"/><path d="M17.815 4.688a1.77 1.77 0 1 0-2.503-2.503l-4.175 4.177a1.668 1.668 0 0 0-.422.711l-.697 2.392a.417.417 0 0 0 .516.517l2.392-.698c.269-.078.514-.223.712-.421l4.177-4.175Z" stroke="#4B5563" stroke-width="1.5" stroke-linecap="round" stroke-linejoin="round"/></svg>